<?xml version="1.0" encoding="UTF-8"?>
<svg id="svg" xmlns="http://www.w3.org/2000/svg" version="1.1" viewBox="0 0 400 400">
  <!-- Generator: Adobe Illustrator 29.7.1, SVG Export Plug-In . SVG Version: 2.1.1 Build 8)  -->
  <defs>
    <style>
      .st0 {
        fill: #f8d794;
        fill-rule: evenodd;
      }
    </style>
  </defs>
  <path id="path0" class="st0" d="M197.03,1.63c-6.22,3.3-11.49,8.23-13.84,12.96-.35.7-.67,1.32-.73,1.37-.05.06-.92-.42-1.92-1.05-2.2-1.39-6.63-3.27-6.93-2.95-.3.32-2.1,5.23-2.66,7.27-.26.93-.52,1.86-.59,2.07-.07.23-.57-.19-1.26-1.07-1.96-2.48-6.02-4.97-9.39-5.77l-.81-.19.15,3.32c.09,1.85.36,3.99.62,4.83.61,1.96.48,2.01-1.31.59-3.35-2.66-8.96-4.65-14-4.96-2.87-.17-8.36.34-8.65.81-.54.87,4.59,9.19,7.48,12.13l2.16,2.2-.95.59-.95.59-2.16-1c-7.44-3.45-16.8-2.91-25.31,1.45l-.97.5,2.4,2.66c1.32,1.46,3.18,3.34,4.13,4.18l1.73,1.52-2.03.52c-2.99.76-10.14,4.5-10.14,5.31,0,.12.52.69,1.16,1.27l1.16,1.04-1.93-.24c-6.1-.75-15.41,1.23-14.43,3.06.9,1.7,3.27,5.33,4.51,6.9,1.66,2.11,1.64,1.96.27,3.3-1.05,1.02-1.26,1.11-3.87,1.46-10.22,1.4-17.81,7.51-21.74,17.49l-.58,1.47,1.75,1.18c.96.65,2.5,1.75,3.41,2.45l1.66,1.27-.86.77c-.47.42-1.76,1.29-2.85,1.93-8.64,5.04-13.74,12.18-16.51,23.1-1.06,4.17-1.49,3.78,4.08,3.59,3.09-.1,4.79-.06,4.79.12,0,1.5-1.8,4.44-3.18,5.18-8.37,4.51-13.05,11.61-14.44,21.93-.5,3.74-.9,3.41,4.05,3.4,6.23-.02,9.25-.98,15.41-4.89.51-.32.85-.19,3.07,1.2,2.12,1.33,4.65,2.55,7.06,3.39.45.16.26.32-1.03.84-5.8,2.36-9.65,7.15-10.93,13.58-.18.91-.4,1.9-.48,2.19-.15.51-.03.53,2,.35,7.76-.66,13.37-5.48,15.94-13.7l.75-2.39,1.13.08c2.87.21,7.55-.86,11.88-2.7l2.36-1,.88.52c.48.29,2.13,1.18,3.66,1.98l2.78,1.46-2.05.35c-8.87,1.5-14.74,6.32-17.22,14.16-1.07,3.36-1.28,3.16,3.38,3.13,9.3-.07,15.85-4.12,20.15-12.47l1.34-2.6,2.16.17c1.19.09,5.01-.01,8.5-.22,3.49-.21,6.38-.35,6.44-.31.47.4-2.74,3.58-4.67,4.64-5.27,2.88-8.24,7.94-8.24,14,0,2.11.05,2.34.49,2.21.27-.08,1.06-.29,1.76-.47,6.44-1.65,10.98-7.78,10.98-14.82,0-1.87,1.14-3.79,3.1-5.2,1.77-1.29,18.19-1.51,21.69-.29,13.13,4.57,22.36,15.41,23.62,27.73.61,5.93-.8,26.41-2.36,34.39l-.71,3.6-3.73,3.99c-6.67,7.13-4.88,6.03-14.01,8.62-2.25.64-5.52,1.6-7.28,2.14-6.1,1.88-5.54,1.85-31.68,1.79l-23.61-.05-3.01,3c-2.89,2.88-3.05,2.99-3.87,2.75-.74-.21-2.74.16-3.05.57-1.15,1.53-1.32,2.87-.53,4.2,1.63,2.76,5.81,1.63,5.87-1.59.02-1.23.1-1.34,2.87-3.93l2.85-2.67h11.74l-9.57,9.58-9.57,9.58h-16.71l-.74-1.27c-2.6-4.43-9.45-2.67-9.45,2.42s7.31,6.94,9.42,2.26l.52-1.16,10.93.18,10.93.18,8.6-8.51c5.11-5.06,8.99-8.67,9.55-8.91.81-.34,4.71-.37,25.76-.22l24.8.17,10.01-9.8,10.01-9.8v-18.88c0-13.87-.09-19.13-.33-19.81-.29-.8-.26-1,.18-1.5,1.36-1.5,3.48.19,2.25,1.8-.35.47-.41,3.3-.41,19.72v19.18l-10.4,10.2-10.4,10.2h-37.46l-.84.71c-.81.68-.96.7-5.16.71-2.38,0-4.47.1-4.64.21-.18.11-5.48,5.31-11.78,11.54l-11.46,11.34h-15.46v13.48l-.63.2c-3.44,1.07-4.42,5.82-1.72,8.34,2.62,2.45,7.22,1.29,8.35-2.11.08-.25,1.99-.36,7.17-.43l7.06-.09-.14,1.25c-.28,2.47,1.16,1.58,8.12-5.04,5.59-5.31,4.28-4.83,13.63-4.96,6.62-.09,8.05-.18,8.96-.58.7-.31,5.48-4.8,13.71-12.88,15.22-14.94,13.17-13.63,21.47-13.75l6.13-.09v7.26l-2.46,2.37c-1.36,1.3-5.09,4.94-8.3,8.08l-5.83,5.71h-1.7c-1.1,0-1.7-.12-1.7-.33,0-.63-1.45-2.22-2.52-2.77-6.37-3.25-12.07,5.01-6.58,9.53,3.28,2.71,9.36.59,9.39-3.27,0-.59.13-.63,1.9-.64h1.9s7.75-7.59,7.75-7.59c4.26-4.17,7.84-7.59,7.96-7.6.12,0,.21,1.28.21,2.86v2.87l-8.8,8.89c-4.84,4.89-9.18,9.11-9.64,9.38-.78.46-2.27.49-20.2.49h-19.36l-5.93,5.66-5.93,5.66-2.1-2-2.11-2h-3.79c-5.14,0-5.35.16-5.4,4.12-.02,1.81-.15,2.8-.36,2.87-4.33,1.44-3.21,8.33,1.35,8.33,4.2,0,5.49-4.98,2.04-7.87-.95-.79-.95-.8-.79-2.71.21-2.55.12-2.48,3.27-2.48h2.76l1.94,1.71c1.38,1.22,2.01,1.99,2.18,2.68.4,1.59,3,1,3-.68,0-.59,10.18-10.37,11.21-10.77.77-.3,3.09-.32,8.03-.07l3.62.18-10.55,10.59c-13.01,13.06-11.47,10.52-11.47,18.91v6.93l-.96.46c-4.59,2.19-2.93,9.51,2.15,9.51s6.98-7.59,2.13-9.6l-.83-.34.09-5.07.09-5.07,11.11-10.94c8.65-8.52,11.33-11,12.11-11.22,1.1-.3,7.35-.32,13.05-.04l3.59.18-4.86,5.01-4.86,5h-4.45c-2.63,0-4.69-.13-5.02-.31-.51-.27-.54-.25-.26.26.17.31.3.94.3,1.39v.83l2.5-.14c1.38-.08,2.98-.05,3.56.06l1.06.2-1.47,1.49-1.47,1.49-2.63-.14c-2.72-.14-4.2.32-4.86,1.5-.12.21-2.28,2.47-4.79,5.01-4.55,4.6-5.02,5.29-4.08,5.99.44.33,1.08-.22,5.86-4.97l5.37-5.33h3.62l-2.95,2.96-2.95,2.96-.09,14.43-.09,14.43-1.24.76c-3.82,2.34-2.99,7.8,1.35,8.98,5.34,1.44,8.41-5.98,3.71-8.95l-1.25-.79v-11.14c0-14.88-1.29-12.04,10.36-22.92l9.5-8.88.09,5.42.09,5.42-3.68,3.52-3.68,3.52v12.53s0,12.53,0,12.53l-1.28.68c-4.77,2.53-2.65,9.77,2.7,9.25,4.91-.47,6.28-7.03,1.94-9.24l-1.1-.56v-12.04s0-12.03,0-12.03l3.66-3.47,3.66-3.47v-14.22l4.14-3.78c2.28-2.08,6.81-6.38,10.08-9.55s7.74-7.52,9.94-9.65l4.01-3.87v-31.96l6.36-6.37,6.36-6.37-.02-16.95c-.01-11.3-.12-17.13-.32-17.5-.6-1.11.78-2.32,1.93-1.7.78.42.96,1.13.47,1.88-.37.57-.43,2.92-.43,17.78v17.12l-6.51,6.47-6.51,6.48.14,20.98c.07,11.54.03,21.72-.09,22.63-.46,3.31-.69,3.59-14.22,17.09-6.91,6.89-13.07,13.15-13.67,13.9l-1.1,1.36v43.81l-1.32.68c-3.36,1.73-3.52,6.6-.27,8.44,3.77,2.13,8.17-1.01,7.37-5.25-.22-1.17-1.9-3.15-2.87-3.4l-.67-.17v-18.63c0-12.73.1-18.98.31-19.75.35-1.28-.59-.3,19.75-20.27,10.15-9.97,13.89-13.81,14.36-14.77.63-1.27.64-1.56.78-12.43l.14-11.13.76-1.55c.76-1.55,4.55-6.19,5.23-6.41.29-.1.35,3.48.28,18.71l-.08,18.83-.76,1.55c-.63,1.28-2.68,3.44-11.49,12.08-7.6,7.46-10.92,10.9-11.39,11.82-.44.87-2.33,2.9-5.76,6.18l-5.1,4.88v18.62l-.99.96c-2.41,2.34-.3,6.29,2.96,5.58,2.54-.56,3.44-3.74,1.57-5.55l-.96-.93-.2-8.73-.2-8.73,3.06-3c1.68-1.65,3.47-3.34,3.98-3.76l.92-.76v1.93c0,3.52.82,34.54,1,37.84.22,4.13-.11,3.63,7.44,10.94l6.21,6.01v8.57c0,7.08.07,8.57.39,8.57.21,0,.76.07,1.22.17l.83.17.19-9.89c.23-11.76.95-9.73-5.89-16.64-6.45-6.51-5.98-5.44-5.73-12.96.11-3.33.29-10.81.39-16.62.27-15.2.4-16.58,1.67-18.43.9-1.3,8.31-8.61,8.73-8.61.09,0,.17,6.37.17,14.17v14.17l-1.27.34c-7.59,2.03-6.33,13.91,1.55,14.63,8.86.8,11.56-12.07,3.06-14.62l-1.08-.32v-30.76l3.06-3.05,3.06-3.05.2,10.24c.47,24.38.21,22.87,4.71,27.18,1.76,1.68,3.67,3.52,4.25,4.08l1.06,1.02v6.03l-4.08,3.96-4.08,3.95v22.96l-.85.35c-4.98,2.06-3.29,9.58,2.15,9.58s6.84-6.61,2.32-9.46l-1.09-.69v-19.81l4.47-4.53c5.57-5.63,5.87-6.34,5.25-12.14l-.21-1.94-3.77-3.86c-2.08-2.12-3.79-4.09-3.81-4.38-.12-1.48.13-14.91.29-15.48.16-.62.97.09,8.96,7.93,10.8,10.58,10.32,9.84,10.46,16.32l.1,4.49-5.39,5.24-5.39,5.24.04,4.26.04,4.26-1.01,1.01c-2.55,2.55.32,6.74,3.46,5.06,2.12-1.13,2.54-4.19.73-5.37-.68-.45-.69-.52-.69-4.42v-3.96l4.07-4.1c2.24-2.25,4.13-4.03,4.2-3.96.07.07.22,4.38.33,9.57l.2,9.44-5.81,5.91-5.81,5.92v5.85s0,5.85,0,5.85l1.2-.18c.66-.1,1.23-.21,1.27-.24.04-.03.15-1.97.25-4.32l.19-4.27,6.08-5.82c8.21-7.85,7.3-4.98,7.8-24.62.27-10.53-.12-9.88,3.71-6.25l3.17,3.01v7.86s0,7.86,0,7.86l-1.1,1.01c-2.92,2.7-1.45,7.07,2.38,7.07s5.06-5.1,1.92-7.14l-.94-.61v-8.49s0-8.49,0-8.49l-4.42-4.36-4.42-4.36v-4.18c-.03-5.91.71-4.84-12.03-17.35-8.68-8.52-10.83-10.78-11.45-12.04l-.77-1.55-.04-27.25c-.02-14.99.06-27.25.18-27.25.82,0,5.48,5.94,5.86,7.46.16.63.36,8.37.46,17.71l.18,16.58,6.4,6.55,6.4,6.55-.1,5.03-.1,5.03,4.12,3.91,4.12,3.91-.18,1.2c-.47,3.11,2.97,5.03,5.32,2.96,2.35-2.06.69-5.92-2.38-5.54-.99.12-1.14,0-4.84-3.72l-3.82-3.84.11-4.93.11-4.93-6.46-6.48-6.46-6.49v-6.94l1.62,1.42c.89.78,4.79,4.52,8.66,8.29l7.04,6.87-.06,4.63-.06,4.63,7.74,7.73,7.74,7.73v1.42c0,1.68-3.85,5.93-5.98,6.61-2.82.89-2.36,4.52.57,4.52,1.44,0,2.36-.94,2.38-2.44.01-1.02,2.06-3.76,2.81-3.76.59,0,.25,23.05-.34,23.24-4.7,1.49-3.92,8.85,1.02,9.6,5.5.82,7.97-7.04,2.93-9.31l-1.19-.54.1-21.99c.1-21.58.09-22-.46-22.85-.31-.47-6.26-6.48-13.23-13.34-13.28-13.08-13.91-13.77-14.89-16.14-.6-1.46-.6-1.62-.6-23.64v-22.17l-6.41-6.43-6.41-6.43v-17.14c0-15.67-.04-17.19-.47-17.67-.58-.64-.22-2,.57-2.15,1.65-.32,2.64,1,1.76,2.34-.4.62-.45,2.5-.45,17.25v16.56l6.48,6.47,6.48,6.47v32.17l1.76,1.66c.97.91,5.43,5.22,9.93,9.58,4.49,4.36,9.97,9.62,12.18,11.69l4.01,3.77v14.18s3.8,3.59,3.8,3.59l3.8,3.59v23.98s-1.34.7-1.34.7c-3.95,2.08-3.24,7.86,1.11,9.03,5.96,1.6,8.7-6.43,3.23-9.45-.48-.27-.52-1.03-.58-12.79l-.06-12.5-3.73-3.55-3.73-3.55.09-5.44.09-5.44,3.93,3.61c11.08,10.18,14.41,13.42,15.09,14.68l.7,1.31.09,11.7.09,11.71-.98.47c-4.49,2.14-2.95,9.35,2,9.34,5.37-.01,7.19-7.38,2.32-9.4l-.85-.35v-28.97l-2.82-2.82c-3.33-3.33-3.24-3.07-1.07-3.07h1.74l5.03,5c4.76,4.72,5.06,4.97,5.44,4.45.68-.92.79-.77-5.83-7.55l-4.06-4.15h-6.19s-1.53-1.55-1.53-1.55l-1.53-1.55h4.43c3.05,0,4.61.11,5.01.35,1.04.64,1.63-.82.78-1.93-.15-.2-2.42-.38-6.22-.5l-5.99-.19-4.85-4.85-4.85-4.85,2.03-.17c5.1-.44,14.38-.27,15.27.27,1.48.91,21.89,21.25,22.29,22.21.26.63.38,2.27.38,5.41v4.51l-1.1.56c-4.47,2.28-2.62,9.31,2.45,9.31,4.97,0,6.69-7.06,2.27-9.31l-1.11-.57.04-6.9c.03-5.78-.03-7-.39-7.52-.24-.34-5.22-5.47-11.08-11.4l-10.65-10.78,5.49-.07c3.02-.04,5.82-.03,6.22.02.88.1,11.52,10.36,11.52,11.1,0,1.33,2.39,1.8,2.67.53.12-.55.92-1.48,2.43-2.82l2.25-2h2.2c2.85,0,3.13.27,3.13,3.03,0,1.9-.04,2.03-.85,2.61-2.61,1.86-2.2,6.06.72,7.35,5.05,2.24,8.08-5.24,3.16-7.81-.75-.39-.77-.47-.77-2.79s-.03-2.42-.96-3.44l-.96-1.05-3.13-.1c-3.58-.11-3.48-.15-6.33,2.51l-1.83,1.72-.78-.57c-.43-.31-3.06-2.86-5.85-5.66l-5.07-5.09h-19.01c-10.77,0-19.41-.11-19.92-.26-.65-.19-3.5-2.86-10.07-9.45l-9.16-9.19v-2.8c0-1.54.07-2.8.17-2.8s3.67,3.42,7.95,7.6l7.79,7.61h3.71l.33,1.11c1.93,6.43,11.68,4.6,11.25-2.12-.36-5.64-7.91-7.47-10.65-2.59-.59,1.04-.63,1.06-2.27,1.06h-1.68l-8.09-7.95c-4.45-4.37-8.17-8.05-8.26-8.18-.09-.13-.19-1.82-.23-3.77l-.06-3.53,6.29.1c8.59.13,6.53-1.19,21.35,13.61,15.01,14.98,12.43,13.46,23.24,13.68,4.49.09,8.2.19,8.25.21.04.03,1.96,1.87,4.25,4.09,4.27,4.14,8.13,7.3,8.57,7.03.14-.08.2-.64.14-1.25l-.11-1.09h14.17l.34.82c1.23,2.97,5.56,3.78,8,1.49,2.61-2.44,1.78-6.86-1.55-8.24l-.81-.33v-13.45h-15.34l-11.56-11.55-11.56-11.55h-4.76c-4.72,0-4.77,0-5.51-.72l-.75-.72-18.61.02-18.6.02-10.38-10.18-10.38-10.18-.15-23.27c-.08-12.8-.25-23.54-.37-23.87-.48-1.25,1.71-2.15,2.35-.96.23.42.19.77-.13,1.39-.38.73-.43,3.69-.43,23.34v22.51l10.16,9.94,10.16,9.94,25-.18,25-.18,1.24.84c.68.46,4.85,4.39,9.26,8.72l8.03,7.87h11.05s11.05.01,11.05.01l.38.92c1.6,3.83,6.96,3.96,8.85.21,2.84-5.62-5.06-10-8.61-4.77-.47.69-.94,1.01-1.69,1.16-1.31.25-14.32.29-15.51.05-.67-.13-3.12-2.39-10.39-9.57l-9.51-9.39h5.87s5.87-.02,5.87-.02l2.38,2.32c2.11,2.06,2.36,2.41,2.23,3.12-.48,2.47,2.29,4.36,4.62,3.15,3.21-1.66,1.77-5.95-1.93-5.73-1.15.07-1.26-.01-3.78-2.51l-2.6-2.58-24.64-.09-24.64-.09-2.96-.87c-3.88-1.14-13.44-3.94-15.8-4.62-2.01-.58-11.63-9.9-12.15-11.76-1.54-5.6-3.5-31.85-2.79-37.48,1.55-12.43,10.38-22.76,23.28-27.24,4.67-1.62,20.78-1.24,22.61.54,1.95,1.89,2.59,3.28,2.6,5.58,0,4.9,2.51,9.5,6.6,12.15,1.42.92,2.91,1.49,6.18,2.39.5.14.52-.02.39-2.77-.29-6.08-3.19-10.76-8.31-13.43-1.94-1.01-5.08-4.25-4.53-4.68.05-.04,1.74.03,3.76.15,2.01.12,5.78.24,8.37.25l4.71.03,1.19,2.17c4.79,8.76,11.2,12.76,20.57,12.84,4.24.04,4.13.11,3.53-2.39-1.83-7.64-10.52-14.9-17.83-14.9-1.73,0-1.52-.38.92-1.69,1.37-.73,3-1.62,3.62-1.98l1.14-.64,2.8,1.14c3.92,1.6,6.74,2.33,9.88,2.55l2.7.19.91,2.54c2.75,7.67,6.75,11.57,13.28,12.96,4.55.96,4.77.78,3.78-3.12-1.53-6.05-7.85-13.07-11.77-13.07-.21,0-.3-.13-.2-.28.1-.16.37-.28.61-.28.73,0,5.05-2.14,7.11-3.53l1.95-1.31,1.73,1.17c4.7,3.19,10.93,4.72,16.7,4.1l1.89-.2v-1.23c0-8.69-5.86-18.8-13.47-23.22-2.53-1.47-2.66-1.59-3.43-3.29-1.44-3.18-1.86-2.88,3.8-2.7l4.94.16-.18-.96c-2.09-11.08-7.41-19.51-15.88-25.1-1.78-1.18-3.59-2.52-4.03-2.97l-.79-.83,1.36-.98c.75-.54,2.16-1.52,3.13-2.17,2.34-1.57,2.33-1.51.53-5.18-4.61-9.4-10.72-13.86-20.89-15.23-2.77-.37-2.82-.4-3.87-1.57l-1.06-1.19,1.22-1.59c1.44-1.88,3.55-5.14,4.39-6.78l.59-1.17-1.77-.82c-3.6-1.68-8.83-2.31-13.32-1.61l-1.41.22,1.22-1.07c1.44-1.27,1.5-1.18-2.06-3.32-3.32-2-4.79-2.6-8.14-3.36-.81-.18-.77-.23,3.17-4.2,4.68-4.72,4.56-4.34,1.8-5.6-8.6-3.91-16.74-4.24-23.86-.94l-2.14.99-.99-.58-.99-.59,2.09-2.15c2.58-2.65,7.8-10.85,7.8-12.25,0-.36-5.98-.81-8.78-.66-5.93.31-10.16,1.89-15.35,5.7l-.61.45.58-1.78c.38-1.17.62-2.87.72-4.98l.14-3.2-.95.2c-2.99.63-7.56,3.33-9.3,5.5q-1.16,1.44-1.74-.79c-1.01-3.88-2.55-7.26-3.26-7.18-1.06.12-4.7,1.74-6.47,2.88l-1.67,1.08-1.42-2.32c-2.76-4.52-7.38-8.68-13.14-11.83-3.46-1.89-3.06-1.88-6.3-.16M201.93,51.02c2.01,4.18,2.37,5.58,2.37,9.19,0,4.3,1.4,10.35,3.51,15.15l.99,2.25-2.18,2.13c-2.61,2.56-2.1,3.09-4.74-5.01l-1.92-5.9-2.09,6.4c-1.15,3.52-2.19,6.37-2.3,6.32-.12-.04-1.16-.98-2.32-2.09l-2.11-2.01.81-1.65c2.19-4.46,3.57-10.14,3.9-16.02.17-3.16.38-4.58.8-5.63.98-2.43,3.12-6.9,3.3-6.9.1,0,.99,1.7,1.99,3.77M169.17,64.2c3.58,2.29,5.83,6.79,5.84,11.71,0,1.43.09,1.42-2.07.28-4.26-2.25-6.66-6.32-6.66-11.29v-1.94l.77.19c.43.11,1.38.58,2.12,1.05M233.77,64.07c.78,4.14-2,9.34-6.37,11.94-2.33,1.38-2.25,1.4-2.25-.39,0-5.05,2.2-9.34,5.93-11.53,2.23-1.31,2.44-1.31,2.69-.02M221.48,71.47c1.09,3.16,1.07,4.07-.3,20-.65,7.51-1.66,9.2-11.05,18.55l-5.2,5.17-.19-3.63c-1.13-22.16-1.07-22.42,7.29-31.09,3.39-3.51,5.67-6.5,7.61-9.95.88-1.57.98-1.52,1.83.94M180.97,71.57c1.41,2.8,2.38,4.05,6.3,8.09,4.74,4.89,5.88,6.35,7.29,9.28l1.15,2.39-.02,8.87c-.01,4.88-.12,10.24-.24,11.92l-.22,3.04-5.48-5.44c-10.11-10.03-10.35-10.51-11.25-22.06-.92-11.94-.86-13.71.58-17.12.55-1.31.77-1.19,1.89,1.02M158.37,71.92c1,.4,1.14.59,1.4,1.79,1.29,5.99,5.28,10.62,12.19,14.12l2.16,1.09.15,1.49c.09.82.23,2.37.32,3.46.09,1.08.24,2.21.33,2.51.15.51.1.51-.79-.08-.52-.34-2.28-1.33-3.91-2.19-9.03-4.81-11.86-9.03-13.09-19.54-.1-.85-.25-1.9-.33-2.32-.17-.9.03-.94,1.56-.33M243.04,73.61c-.96,10.28-4.25,15.63-12.3,20.04-1.76.96-3.74,2.08-4.41,2.49l-1.21.74.19-2.21c.1-1.21.27-2.96.37-3.89l.18-1.68,1.97-1.07c7.22-3.91,11.08-8.27,12.28-13.83.33-1.54.43-1.69,1.5-2.16,1.66-.74,1.65-.75,1.43,1.58M137.78,89.12c4.83,2.31,7.58,6.79,8.32,13.54.16,1.44.23,1.44-2.84.21-5.73-2.3-8.68-6.37-9.02-12.47l-.14-2.62.81.18c.45.1,1.74.62,2.87,1.17M265.7,90.03c0,6.43-3.37,10.82-10.3,13.43l-1.73.65.13-1.32c.77-7.69,6.15-14.58,11.69-14.97.12,0,.21.98.21,2.21M250.48,90.8c-.41,1.08-.46,3.37-.16,8.04.38,5.95-.66,7.23-9.54,11.75-5.11,2.6-5.02,2.57-4.64,1.57.16-.42.91-3.25,1.67-6.29,2.37-9.53,3.26-10.86,9.6-14.3,3.53-1.92,3.52-1.92,3.08-.76M153.1,91.82c5.83,3.26,6.78,4.7,9.11,13.82.84,3.28,1.61,6.26,1.71,6.63.11.37.08.62-.06.55-13.48-6.38-14.41-7.32-14.07-14.17.25-5.03.21-7-.14-7.92-.37-.99-.08-.9,3.45,1.08M171.49,100.15c4.64,3.5,15.53,15.39,17.21,18.79,1.38,2.8,2.71,12.81,1.71,12.81-.06,0-.59-.46-1.18-1.02-.59-.56-2.67-2.28-4.62-3.83-7.73-6.14-9.61-7.92-11.87-11.24-2.91-4.28-5.89-13.35-5.89-17.9v-.69l1.1.62c.6.34,2.2,1.45,3.55,2.46M232.62,101.42c-1.71,10.77-4.96,15.72-16.35,24.86-2.95,2.36-5.6,4.56-5.89,4.88-1,1.11-1.1.75-.92-3.43.32-7.69,1.63-9.94,12.22-21,4.28-4.47,7.15-6.99,10.09-8.85l1.13-.71.09.7c.05.38-.11,1.98-.36,3.55M148.9,109.41c6.34,4.45,16.25,12.03,16.25,12.43,0,.1-1.3.1-2.89-.01-1.59-.11-4-.12-5.36-.03-2.97.2-2.74.36-5.96-3.99-2.75-3.7-4.35-5.17-6.76-6.22l-1.8-.78.42-.81c.23-.44.49-1.42.58-2.18l.16-1.37,1.53.67c.84.37,2.57,1.4,3.84,2.3M256.42,107.31c0,.5.24,1.43.52,2.06l.52,1.14-1.86.96c-2.24,1.16-3.79,2.65-6.43,6.2-3.12,4.2-2.51,3.9-8.41,4.08-2.78.08-5.28.22-5.55.3-1.77.56,5.22-5.06,15.34-12.33,1.95-1.4,5.19-3.31,5.64-3.32.12,0,.21.41.22.91M281.43,109.13c1.11.19,1.08.75-.13,2.72-3.26,5.27-9.97,7.63-16.39,5.76l-1.23-.36,1.24-1.69c4.1-5.56,9.44-7.64,16.51-6.43M127.4,109.65c3.29,1.04,8.75,5.8,8.75,7.62,0,1.01-7.43,1.32-10.01.41-3.97-1.4-8.29-5.62-8.29-8.1,0-.91,6.61-.87,9.56.06M139.57,122.07c2.84,2.46,5.63,3.35,13.12,4.17,2.21.24,5.82.64,8.03.88,8.28.9,11.79,2.47,17.2,7.7,4.67,4.51,5.66,6.65,5.76,12.43l.08,4.65,8.44,8.31,8.44,8.31.19,34.45.18,34.45,3.22,3.01c1.77,1.66,3.55,3.1,3.94,3.21,1.28.35,1.62,1.72.64,2.61-.78.71-1.92.38-2.15-.63-.11-.47-1.55-2.16-3.65-4.29l-3.47-3.52-.14-8.87c-.08-4.88-.15-16.68-.15-26.23l-.02-17.35-6.48-6.12-6.48-6.12v-6.83l-5.14-5.14c-3.41-3.41-5.34-5.14-5.73-5.14-.88,0-1.63-.96-1.41-1.81.37-1.48,2.21-1.52,2.58-.05.09.36,2.63,3.11,5.64,6.1l5.47,5.45v6.77l1.66,1.56c.91.86,3.48,3.27,5.7,5.36l4.04,3.8.08-6.93.07-6.93-8.24-8.18c-11.45-11.36-10.86-10.93-19.51-14.16-15.71-5.86-34.99-16.39-43.33-23.67-.49-.43,6.61-2.46,8.73-2.5,1.01-.02,1.39.16,2.68,1.28M266.55,121.2c2.1.49,5.4,1.52,5.69,1.78.25.23-2.24,2.07-7.96,5.88-11.08,7.39-20.66,12.25-36.61,18.59-9.84,3.91-8.98,3.38-14.91,9.24l-5.21,5.15.17,9.1c.09,5.01.27,9.51.38,10.01.19.81.13.94-.54,1.25-1.09.5-1.73.02-1.6-1.21.05-.52.15-4.64.22-9.16l.12-8.21-3.39-3.23-3.39-3.23v-12.75l-.84-.44c-2.88-1.49-2.16-6.1,1.01-6.53,3.78-.51,5.39,5.39,1.79,6.53-.52.17-.55.47-.55,6.33v6.15l2.53,2.36,2.53,2.36,5.01-4.99,5.01-4.99.15-4.17c.17-4.71.31-5.14,2.83-8.56,1.55-2.1,5.69-6.19,7.58-7.49,4.1-2.81,6.07-3.28,19.15-4.62,9.34-.95,11.27-1.51,14.66-4.22,2-1.6,2.88-1.73,6.19-.97M127.7,130.06c3.48,1.17,7.63,4.02,15.5,10.61,2.41,2.02,4.98,4.13,5.72,4.7.74.57,1.28,1.03,1.2,1.03s-3.91.38-8.51.85c-4.6.47-8.38.82-8.4.77-3.14-8-8.34-11.85-16.02-11.86-3.89,0-3.91.02-2.53,2.96,2.5,5.33,8.2,9.11,13.99,9.28l1.15.03-1.41.27c-3.07.59-10.78.43-13.19-.27-4.65-1.35-6.04-2.26-11.48-7.59l-4.96-4.85,1.02-.16c3.21-.49,4.96-1.18,9.61-3.8,2.18-1.23,2.61-1.36,4.79-1.52,1.32-.1,3.41-.42,4.65-.73,2.85-.7,6.3-.59,8.88.28M281.9,129.92c.77.25,2.55.55,3.95.67,2.47.21,2.66.28,6.48,2.36,3.6,1.96,6.41,3.02,8.01,3.02.87,0,.91-.05-4.22,4.93-7.2,6.99-9.97,8.18-18.87,8.12-3.15-.02-5.79-.16-6.2-.33-.64-.27-.59-.3.56-.32,5.53-.1,10.86-3.49,13.38-8.52,1.86-3.72,1.78-3.87-1.97-3.87-7.01,0-12.25,3.38-15.3,9.85-.55,1.16-1.02,2.15-1.05,2.19-.05.07-16.1-1.58-16.53-1.71-.11-.03,1.09-1.1,2.67-2.38,1.59-1.27,4.02-3.28,5.42-4.46,10.93-9.26,16.95-11.69,23.66-9.55M198.97,139.81c-.7.89-.72,1.19-.15,2.01,1.14,1.63,3.83.04,2.9-1.72-.67-1.27-1.88-1.4-2.75-.3M307.84,242.86c1.01,1.54-.74,3.28-2.28,2.28-.86-.56-.92-1.64-.14-2.42.78-.78,1.85-.72,2.42.14M93.58,243.58c.56,1.01.23,2.17-.69,2.41-1.66.42-2.86-1.21-1.94-2.61.62-.94,2.06-.83,2.63.21M126.44,247.86c-1.11,1.66-19.41,19.24-20.39,19.58-2.48.86-2.63,3.72-.25,4.56,1.64.57,3.75-1.23,3.18-2.71-.14-.37,2.16-2.83,9.75-10.43l9.94-9.94h11.06c6.08,0,11.06.1,11.06.21,0,.23-6.18,6.97-7.75,8.45l-.97.92h-4.67c-2.83,0-4.9.12-5.24.31-.47.25-.71.18-1.32-.38-3.15-2.89-4.88-2.27-10.39,3.77-2.46,2.69-2.47,2.85-.45,5.04,3.56,3.84,4.99,3.32,11.41-4.14l2.25-2.62h3.07c1.69,0,3.07.09,3.07.21s-2.88,3.09-6.41,6.62l-6.4,6.41-5.35.03c-2.94.02-6.14.11-7.09.21l-1.74.18-5.66,5.56-5.66,5.56h-6.96s-6.96-.03-6.96-.03l-.58-1.18c-.42-.86-.94-1.38-1.9-1.89l-1.33-.7.07-5.49.07-5.49,7.04-.08,7.04-.07,11.56-11.54,11.55-11.54h5.77l-.42.63M290.68,258.77l11.45,11.54,7.02.08,7.02.07.13,5.39.13,5.39-1.3.76c-.9.53-1.48,1.14-1.9,2.01l-.61,1.25h-14.17l-5.61-5.64-5.61-5.64-7.11-.18-7.11-.18-6.23-6.36-6.23-6.36,3.06-.08,3.06-.09.7.93c1.39,1.85,6.59,6.97,7.55,7.43,1.96.93,5.24-.99,6.44-3.76.54-1.24.32-1.5-6.16-7.31-1.93-1.73-3.81-1.67-5.95.21-.83.73-1.1.83-1.56.58-.33-.17-2.42-.3-5.04-.3h-4.48l-3.5-3.59c-3.39-3.49-5.23-5.62-5-5.82.06-.05,4.92-.18,10.81-.29l10.7-.19,10,9.99c9.32,9.31,9.99,10.05,9.91,10.87-.28,2.72,3.41,3.74,4.58,1.27.75-1.58-.1-3.24-1.66-3.24-.37,0-4.06-3.49-10.57-9.99l-10-9.99,1.41-.1c.78-.05,2.08-.12,2.89-.15l1.48-.05,11.45,11.54M73.49,256.64c2.02,2.02-.82,5-3.07,3.23-1.55-1.22-.51-3.92,1.51-3.92.55,0,1.13.26,1.56.69M329.81,256.61c2.18,1.87-.78,5.13-3.01,3.32-1.41-1.14-.37-3.98,1.47-3.98.43,0,1.13.3,1.55.66M128.74,259.95q1.27,1.23-1.7,4.28c-3.09,3.18-3.79,3.36-5.24,1.33l-.58-.82,2.77-2.85c3.05-3.13,3.38-3.27,4.75-1.95M275.51,261.37c3.62,3.44,3.56,3.34,2.42,4.7-1.22,1.44-1.81,1.22-4.94-1.86q-3.14-3.08-1.78-4.28c1.39-1.22,1.56-1.16,4.31,1.45M107.42,269.2c.64.64.35,1.68-.46,1.68-1.24,0-1.95-1.15-1.18-1.92.49-.49.99-.42,1.64.23M294.58,269.49c.25.78-.36,1.44-1.24,1.34-.74-.09-1.06-.73-.76-1.51.25-.65,1.79-.52,2.01.17M253.71,273.96c2.17,1.43,2.11,4.35-.13,5.51-2.33,1.21-5.03-.53-4.7-3.03.33-2.44,2.89-3.76,4.82-2.48M150.08,274.31c1.82,1.43,1.78,3.66-.08,4.98-2.56,1.82-6.19-.97-4.82-3.71.93-1.85,3.36-2.48,4.9-1.27M84.2,284.81c.97.97.92,2.22-.13,3.27-1.02,1.02-2.06,1.06-2.99.13-1.46-1.46-.45-4.1,1.56-4.1.55,0,1.13.26,1.56.69M319.03,284.81c1.81,1.68-.2,4.97-2.31,3.79-1.01-.57-1.58-1.67-1.34-2.6.46-1.84,2.3-2.44,3.66-1.18M92.62,303.34c1.16,1.02,1.24,2.27.21,3.3-1.05,1.05-2.08,1.11-3.03.17-2.03-2.03.66-5.35,2.81-3.46M310.36,303.4c1.02,1.02.83,2.78-.41,3.74-1.26.97-3.24-.27-3.24-2.03,0-2.04,2.26-3.09,3.65-1.7M126.64,304.3c-.49.2-.44.77.15,1.5l.5.62.7-.59.7-.59-.66-.56c-.69-.59-.79-.61-1.38-.38M124.89,306.08c-.62.38-.04,1.81.77,1.93.92.13,1.07-.64.3-1.48-.47-.5-.78-.63-1.07-.45M273.75,306.63c-1,1.11.28,2.24,1.34,1.18.48-.48.54-.71.3-1.1-.44-.7-1.05-.74-1.64-.09M122.96,308.14c-.39.46.81,2.09,1.31,1.78.49-.3.4-1.15-.19-1.67-.62-.56-.74-.57-1.13-.1M275.46,308.29c-.57.63-.58.82-.06,1.34.46.46.58.33.85-.94.22-1.02-.09-1.18-.79-.4M276.99,309.45c-.68.68-.71.87-.2,1.56.31.43.42.45.61.12.13-.22.41-.66.61-.99.6-.94-.22-1.49-1.02-.69M121.36,309.46c-.2.32.21,1.17.79,1.65.77.64,1.14-.32.46-1.18-.62-.79-.97-.92-1.24-.47M245.06,322.5c.66.95.76,1.4.88,4.08l.13,3.01-6.59-6.43c-5.08-4.96-6.58-6.59-6.57-7.11.01-.37.04-1.76.07-3.09l.05-2.42,5.64,5.44c3.1,3,5.98,5.93,6.38,6.51M278.48,311.27c-.74.65-.77.73-.34,1.17.51.52,1.93-.1,1.93-.85,0-.87-.77-1.02-1.59-.31M119.99,311.07c-.34.34-.18,1.13.34,1.6.56.5,1.45.36,1.45-.23s-1.47-1.69-1.79-1.37M279.76,312.35c-.3.9.56,3.05.97,2.42.45-.68.68-1.66.42-1.81-.17-.1-.41-.01-.55.2-.18.29-.25.22-.25-.25,0-.49-.47-.93-.59-.56M117.97,313.15c-.22.35.93,1.67,1.45,1.67.62,0,.74-.56.27-1.28-.47-.71-1.39-.92-1.72-.39M281.54,313.97c-.76,1.22-.27,1.85.65.83.45-.5.47-.62.11-.98s-.45-.34-.76.15M116.3,315.03c-.13.34.05.7.57,1.15.98.85,1.48.45.97-.78-.39-.95-1.24-1.16-1.54-.37M282.25,315.12c-.6.35-.63.92-.08,1.37.48.4,1.82-.4,1.84-1.09,0-.29-.15-.26-.6.14q-.6.53-.27-.1c.37-.71,0-.85-.89-.33M114.81,316.27c-.49.5-.44.92.2,1.5.55.49,1.42.43,1.42-.11,0-.67-1.26-1.75-1.62-1.39M283.85,316.92c-.78,1.19.16,1.79,1.1.69.39-.46.43-.67.17-.98-.47-.57-.75-.5-1.27.29M115.61,321.12c-.36.43.71,2.47,1.22,2.33.64-.18.87-1.05.36-1.34-.33-.19-.45-.47-.33-.83.21-.66-.73-.77-1.25-.15M282.6,321.4c0,1.04.65,1.42,1.27.73.5-.55.5-.58-.03-.98-.8-.6-1.24-.51-1.24.24M113.93,322.64c-.36.67.31,1.75,1.09,1.75s1.01-.57.33-.75c-.31-.08-.51-.31-.44-.5.25-.65-.66-1.11-.98-.5M284.5,322.96c-.63.71-.68.87-.33,1.16.52.43,1.97-.89,1.71-1.56-.24-.62-.56-.53-1.39.4M109.18,328.9c2.13,1.67.06,5.04-2.34,3.8-1.54-.8-1.8-2.14-.66-3.49.86-1.03,1.95-1.14,3-.31M293.89,329.16c.92.92,1,1.39.42,2.52-.88,1.7-3.24,1.68-3.96-.05-.99-2.35,1.74-4.26,3.54-2.47M236.15,330.39c1.27.97,1.29,2.61.05,3.59-2.14,1.68-4.67-1.71-2.57-3.46.68-.57,1.88-.63,2.53-.13M234.21,331.4c-.68.43-.29,1.85.54,1.95.93.11,1.5-.56,1.27-1.49-.18-.73-1.04-.95-1.81-.46M241.3,342.73c.5.71.33,1.29-.42,1.53-1.05.33-1.82-1-1.03-1.79.5-.5.99-.41,1.46.26M191.47,348.45c4.65,2.73.94,10.5-4.03,8.43-4.06-1.69-4.17-7.02-.19-8.88,1.39-.65,2.57-.52,4.22.45M129.28,348.99c2.12,1.82-.59,5.04-2.89,3.43-1.22-.85-1.05-3.11.28-3.76.99-.48,1.8-.38,2.62.32M258.19,348.66c1.41.75,1.72,2.19.74,3.44-1.24,1.57-3.92.59-3.92-1.43,0-1.74,1.69-2.8,3.19-2M273.61,348.69c1.27.98,1.38,2.22.28,3.32-1.53,1.53-3.8.63-3.74-1.49.05-1.66,2.2-2.8,3.46-1.83M144.22,349.03c2.02,1.41-.11,4.83-2.34,3.76-2.19-1.05-1.53-4.18.88-4.18.48,0,1.14.19,1.46.42M163.46,352.56c1.08,1.08.43,2.54-1.14,2.54-.82,0-1.4-.63-1.4-1.53,0-.56.99-1.57,1.55-1.57.23,0,.68.25.98.56M154.66,365.97c1.6,1.76-.58,4.46-2.71,3.36-1.77-.91-1.72-3.2.09-3.98,1.07-.46,1.8-.29,2.63.62M248.48,365.4c1.5,1.05,1.28,3.24-.4,3.94-1.04.43-1.64.31-2.58-.54-1.89-1.7.89-4.87,2.98-3.4M214.6,374.65c1.72,1.72-.33,4.35-2.49,3.21-.84-.44-1.03-.79-1.03-1.86,0-1.9,2.15-2.73,3.53-1.35M212.04,375.39c-.31.49.12,1.63.67,1.8,1.14.36,2.15-.83,1.44-1.69-.39-.47-1.84-.55-2.11-.11M237.66,375.53c.71.71.57,2.28-.26,2.82-1.88,1.23-3.81-1.24-2.22-2.84.55-.55,1.92-.54,2.48.02M201.42,390.75c1.42,1.59.35,4.06-1.76,4.06-2.77,0-3.33-3.88-.7-4.88.73-.28,1.81.08,2.46.82"/>
</svg>